<svg width="40" height="40" viewBox="0 0 40 40" fill="none" xmlns="http://www.w3.org/2000/svg">
    <!-- 家居模式 - 在家发送警报状态 (Home;SendingAlertMessage) -->
    <!-- 房子背景 -->
    <path d="M6 20L20 8L34 20V32H6V20Z" fill="#FEF3C7"/>
    <path d="M6 20L20 8L34 20V32H6V20Z" stroke="#F59E0B" stroke-width="2"/>
    
    <!-- 屋顶 -->
    <path d="M4 20L20 6L36 20" stroke="#F59E0B" stroke-width="2"/>
    
    <!-- 门 -->
    <rect x="17" y="24" width="6" height="8" fill="#FDE68A"/>
    <rect x="17" y="24" width="6" height="8" stroke="#F59E0B" stroke-width="1"/>
    
    <!-- 窗户 -->
    <rect x="9" y="16" width="5" height="5" fill="#FEF08A"/>
    <rect x="9" y="16" width="5" height="5" stroke="#F59E0B" stroke-width="1"/>
    <rect x="26" y="16" width="5" height="5" fill="#FEF08A"/>
    <rect x="26" y="16" width="5" height="5" stroke="#F59E0B" stroke-width="1"/>
    
    <!-- 警报图标 -->
    <path d="M20 4L21 6H19L20 4Z" fill="#EF4444"/>
    <path d="M18 6H22V7H18V6Z" fill="#EF4444"/>
    <circle cx="20" cy="8" r="1" fill="#EF4444"/>
</svg>










