<svg width="40" height="40" viewBox="0 0 40 40" fill="none" xmlns="http://www.w3.org/2000/svg">
    <!-- 湿度传感器 - Working -->
    <circle cx="20" cy="20" r="14" fill="#06B6D4"/>
    <circle cx="20" cy="20" r="14" stroke="#0891B2" stroke-width="2"/>
    <!-- 水滴 -->
    <path d="M20 10C20 10 14 18 14 22C14 26 17 28 20 28C23 28 26 26 26 22C26 18 20 10 20 10Z" fill="white"/>
    <!-- 波纹 -->
    <path d="M14 24C14 24 17 26 20 26C23 26 26 24 26 24" stroke="#06B6D4" stroke-width="1.5" fill="none"/>
    <path d="M12 22C12 22 16 25 20 25C24 25 28 22 28 22" stroke="#06B6D4" stroke-width="1.5" fill="none" opacity="0.5"/>
</svg>











