<svg width="40" height="40" viewBox="0 0 40 40" fill="none" xmlns="http://www.w3.org/2000/svg">
    <!-- 洗衣机 - 脱水运行状态 (SpinDry;Run) -->
    <rect x="8" y="10" width="24" height="24" rx="3" fill="#FEF3C7"/>
    <rect x="8" y="10" width="24" height="24" rx="3" stroke="#EAB308" stroke-width="2"/>
    <!-- 滚筒 - 快速旋转 -->
    <circle cx="20" cy="22" r="8" fill="#FDE68A"/>
    <circle cx="20" cy="22" r="8" stroke="#EAB308" stroke-width="1.5"/>
    <!-- 快速旋转效果 -->
    <path d="M14 16C14 16 16 20 20 20C24 20 26 16 26 16" stroke="#EAB308" stroke-width="1.5" stroke-linecap="round"/>
    <path d="M26 28C26 28 24 24 20 24C16 24 14 28 14 28" stroke="#EAB308" stroke-width="1.5" stroke-linecap="round"/>
    <!-- 控制面板 -->
    <rect x="10" y="6" width="20" height="4" rx="1" fill="#FDE68A"/>
    <circle cx="15" cy="8" r="1.5" fill="#22C55E"/>
    <circle cx="20" cy="8" r="1.5" fill="#22C55E"/>
    <circle cx="25" cy="8" r="1.5" fill="#94A3B8"/>
</svg>










