<svg width="40" height="40" viewBox="0 0 40 40" fill="none" xmlns="http://www.w3.org/2000/svg">
    <!-- 天气 - 工作状态 (Working) -->
    <!-- 太阳 -->
    <circle cx="14" cy="14" r="6" fill="#FCD34D"/>
    <circle cx="14" cy="14" r="6" stroke="#F59E0B" stroke-width="1.5"/>
    <!-- 阳光 -->
    <path d="M14 4V6M14 22V24M4 14H6M22 14H24M7 7L8 8M20 20L21 21M7 21L8 20M20 8L21 9" stroke="#FCD34D" stroke-width="1.5" stroke-linecap="round"/>
    <!-- 云朵 -->
    <path d="M26 18C26 18 24 16 26 14C26 12 28 10 30 10C32 10 34 12 34 14C36 14 36 16 36 18C36 20 34 22 32 22H28C26 22 26 20 26 18Z" fill="white" stroke="#94A3B8" stroke-width="1.5"/>
    <!-- 指示灯 -->
    <circle cx="20" cy="34" r="2" fill="#22C55E"/>
</svg>










