<svg width="40" height="40" viewBox="0 0 40 40" fill="none" xmlns="http://www.w3.org/2000/svg">
    <!-- 空气净化器 - 工作状态（显示风扇转动效果） -->
    <rect x="11" y="8" width="18" height="28" rx="4" fill="#DCFCE7"/>
    <rect x="11" y="8" width="18" height="28" rx="4" stroke="#16A34A" stroke-width="2" stroke-linecap="round" stroke-linejoin="round"/>
    <path d="M11 14H29" stroke="#16A34A" stroke-width="2" stroke-linecap="round" stroke-linejoin="round"/>

    <!-- 风扇叶片 - 转动效果 -->
    <circle cx="20" cy="22" r="5" fill="#16A34A"/>
    <circle cx="20" cy="22" r="2" fill="#fff"/>
    <path d="M20 17V14M20 30V27M14 22H11M29 22H26M15.5 18.5L13.5 16.5M26.5 27.5L24.5 25.5M15.5 25.5L13.5 27.5M26.5 18.5L24.5 16.5" stroke="#16A34A" stroke-width="1.5" stroke-linecap="round"/>

    <!-- 气流效果 -->
    <path d="M15 6C15 6 16 2 18 2" stroke="#16A34A" stroke-width="1.5" stroke-linecap="round"/>
    <path d="M22 6C22 6 23 3 25 3" stroke="#16A34A" stroke-width="1.5" stroke-linecap="round"/>
    <circle cx="27" cy="5" r="1" fill="#16A34A"/>
    <circle cx="13" cy="4" r="0.8" fill="#16A34A"/>

    <!-- 空气质量指示灯 -->
    <circle cx="16" cy="30" r="1.5" fill="#22C55E"/>
    <circle cx="20" cy="30" r="1.5" fill="#22C55E"/>
    <circle cx="24" cy="30" r="1.5" fill="#22C55E"/>
</svg>
