<svg width="40" height="40" viewBox="0 0 40 40" fill="none" xmlns="http://www.w3.org/2000/svg">
    <!-- 空调 - 除湿模式 (Dry) -->
    <!-- 机身 -->
    <rect x="6" y="12" width="28" height="20" rx="3" fill="#E0E7FF"/>
    <rect x="6" y="12" width="28" height="20" rx="3" stroke="#8B5CF6" stroke-width="2"/>

    <!-- 出风口 -->
    <path d="M10 18H30" stroke="#8B5CF6" stroke-width="2" stroke-linecap="round"/>
    <path d="M10 22H30" stroke="#8B5CF6" stroke-width="2" stroke-linecap="round"/>
    <path d="M10 26H30" stroke="#8B5CF6" stroke-width="2" stroke-linecap="round"/>

    <!-- 水滴图标 - 除湿 -->
    <path d="M24 7C24 7 20 12 20 15C20 17 21.5 18 24 18C26.5 18 28 17 28 15C28 12 24 7 24 7Z" fill="#06B6D4"/>
    <path d="M22 15C22 15 22.5 16 24 16C25.5 16 26 15 26 15" stroke="#0EA5E9" stroke-width="1" stroke-linecap="round"/>

    <!-- 除湿效果 -->
    <path d="M12 32C12 32 10 29 13 27" stroke="#8B5CF6" stroke-width="1.5" stroke-linecap="round" opacity="0.6"/>
    <path d="M20 32C20 32 18 29 21 27" stroke="#8B5CF6" stroke-width="1.5" stroke-linecap="round" opacity="0.6"/>
    <path d="M28 32C28 32 26 29 29 27" stroke="#8B5CF6" stroke-width="1.5" stroke-linecap="round" opacity="0.6"/>
</svg>




