<svg width="40" height="40" viewBox="0 0 40 40" fill="none" xmlns="http://www.w3.org/2000/svg">
    <!-- 空调 - 仅送风模式 (Fan Only) -->
    <!-- 机身 -->
    <rect x="6" y="12" width="28" height="20" rx="3" fill="#F0FDF4"/>
    <rect x="6" y="12" width="28" height="20" rx="3" stroke="#22C55E" stroke-width="2"/>

    <!-- 出风口 -->
    <path d="M10 18H30" stroke="#22C55E" stroke-width="2" stroke-linecap="round"/>
    <path d="M10 22H30" stroke="#22C55E" stroke-width="2" stroke-linecap="round"/>
    <path d="M10 26H30" stroke="#22C55E" stroke-width="2" stroke-linecap="round"/>

    <!-- 风扇图标 -->
    <circle cx="20" cy="20" r="4" stroke="#16A34A" stroke-width="1.5" fill="none"/>
    <path d="M20 16L21.5 18.5L20 17.5L18.5 18.5L20 16Z" fill="#16A34A"/>
    <path d="M24 20L21.5 21.5L22.5 20L21.5 18.5L24 20Z" fill="#16A34A"/>
    <path d="M20 24L18.5 21.5L19.5 22.5L20.5 23.5L20 24Z" fill="#16A34A"/>
    <path d="M16 20L18.5 18.5L17.5 20L18.5 21.5L16 20Z" fill="#16A34A"/>

    <!-- 送风效果 -->
    <path d="M12 32C12 32 8 30 10 28" stroke="#22C55E" stroke-width="1.5" stroke-linecap="round" opacity="0.6"/>
    <path d="M28 32C28 32 32 30 30 28" stroke="#22C55E" stroke-width="1.5" stroke-linecap="round" opacity="0.6"/>
</svg>










