<svg width="40" height="40" viewBox="0 0 40 40" fill="none" xmlns="http://www.w3.org/2000/svg">
    <!-- 空调 - 制热模式 (Heat) -->
    <!-- 机身 -->
    <rect x="6" y="12" width="28" height="20" rx="3" fill="#FEF3C7"/>
    <rect x="6" y="12" width="28" height="20" rx="3" stroke="#F59E0B" stroke-width="2"/>

    <!-- 出风口 -->
    <path d="M10 18H30" stroke="#F59E0B" stroke-width="2" stroke-linecap="round"/>
    <path d="M10 22H30" stroke="#F59E0B" stroke-width="2" stroke-linecap="round"/>
    <path d="M10 26H30" stroke="#F59E0B" stroke-width="2" stroke-linecap="round"/>

    <!-- 太阳图标 - 制热 -->
    <circle cx="24" cy="10" r="4" fill="#F59E0B"/>
    <circle cx="24" cy="10" r="2" fill="#FCD34D"/>
    <path d="M24 4V2" stroke="#F59E0B" stroke-width="1.5" stroke-linecap="round"/>
    <path d="M20 6L18 5" stroke="#F59E0B" stroke-width="1.5" stroke-linecap="round"/>
    <path d="M28 6L30 5" stroke="#F59E0B" stroke-width="1.5" stroke-linecap="round"/>

    <!-- 热气效果 -->
    <path d="M12 32C12 32 14 28 10 26" stroke="#F59E0B" stroke-width="1.5" stroke-linecap="round" opacity="0.6"/>
    <path d="M20 32C20 32 22 28 18 26" stroke="#F59E0B" stroke-width="1.5" stroke-linecap="round" opacity="0.6"/>
    <path d="M28 32C28 32 30 28 26 26" stroke="#F59E0B" stroke-width="1.5" stroke-linecap="round" opacity="0.6"/>
</svg>











