<svg width="40" height="40" viewBox="0 0 40 40" fill="none" xmlns="http://www.w3.org/2000/svg">
    <!-- 手机 - 上传云端状态 (Uploading to Cloud) -->
    <!-- 手机机身 -->
    <rect x="12" y="6" width="16" height="28" rx="3" fill="#1E1B4B"/>
    <rect x="12" y="6" width="16" height="28" rx="3" stroke="#312E81" stroke-width="2"/>
    
    <!-- 屏幕 -->
    <rect x="14" y="10" width="12" height="18" rx="1" fill="#4338CA"/>
    
    <!-- 云上传图标 -->
    <path d="M26 16C26 16 24 14 22 14C20.5 14 19 15 19 16.5C19 16.5 17 16 17 18C17 20 19 21 21 21H25C27 21 29 19 29 17C29 15 27 14 26 14" stroke="#22C55E" stroke-width="1.5" fill="none"/>
    
    <!-- 上传箭头 -->
    <path d="M23 20V24M23 24L21 22M23 24L25 22" stroke="#22C55E" stroke-width="1.5" stroke-linecap="round" stroke-linejoin="round"/>
    
    <!-- 相机 -->
    <circle cx="20" cy="8" r="2" fill="#1E1B4B"/>
    <circle cx="20" cy="8" r="1" fill="#4338CA"/>
    
    <!-- 主页按钮 -->
    <circle cx="20" cy="30" r="2" fill="#312E81"/>
</svg>




