<svg width="40" height="40" viewBox="0 0 40 40" fill="none" xmlns="http://www.w3.org/2000/svg">
    <!-- 烘干机 - 高热运行状态 (HighHeat;Run) -->
    <!-- 机身 -->
    <rect x="8" y="12" width="24" height="22" rx="3" fill="#FEE2E2"/>
    <rect x="8" y="12" width="24" height="22" rx="3" stroke="#DC2626" stroke-width="2"/>
    
    <!-- 门 -->
    <circle cx="20" cy="23" r="8" fill="#FECACA"/>
    <circle cx="20" cy="23" r="8" stroke="#DC2626" stroke-width="1.5"/>
    
    <!-- 旋转图标 -->
    <path d="M16 20C16 20 17 23 20 23C23 23 24 20 24 20" stroke="#DC2626" stroke-width="1.5" stroke-linecap="round"/>
    <path d="M24 26C24 26 23 23 20 23C17 23 16 26 16 26" stroke="#DC2626" stroke-width="1.5" stroke-linecap="round"/>
    
    <!-- 强热气效果 -->
    <path d="M12 10C12 10 10 7 13 5" stroke="#DC2626" stroke-width="1.5" stroke-linecap="round" opacity="0.7"/>
    <path d="M20 8C20 8 20 4 22 2" stroke="#DC2626" stroke-width="1.5" stroke-linecap="round" opacity="0.7"/>
    <path d="M28 10C28 10 30 7 27 5" stroke="#DC2626" stroke-width="1.5" stroke-linecap="round" opacity="0.7"/>
    
    <!-- 控制面板 -->
    <rect x="10" y="8" width="20" height="4" rx="1" fill="#FECACA"/>
    <circle cx="15" cy="10" r="1.5" fill="#22C55E"/>
    <circle cx="20" cy="10" r="1.5" fill="#22C55E"/>
    <circle cx="25" cy="10" r="1.5" fill="#94A3B8"/>
</svg>










